<svg version="1.2" xmlns="http://www.w3.org/2000/svg" viewBox="0 0 1200 800" width="1200" height="800">
	<title>Zaragoza</title>
	<style>
		.s0 { fill: #cc0000 } 
		.s1 { fill: #000000 } 
		.s2 { fill: #ffcc00 } 
	</style>
	<path class="s0" d="m1200 0v800h-1200v-800z"/>
	<path fill-rule="evenodd" class="s1" d="m758.4 318.4c5.5-1.3 12.9-12.4 13.5-25.7-7.1 2.8-14.5 7.4-19.7 5.3 7.7-12.4 5.2-17.3-4.3-28.1 0.9 6.5-2.8 13.9-12.1 19.1-6.1-4-38.2-12-51.2 11.5-12.9 23.4-11.4 44.7 0.3 75.9-10.5-0.7-16 12.3-10.5 23.1 14.9-16 26.3-0.6 29 5.2 2.8 5.9 10.8 15.5-4.3 26.3-15.1 10.8-29-4.4-56.7-31.5 0.9-1.6 0-1.6 1.2-3.7-8.6-5.6-4.6-18.8-2.8-21.3 1.9-2.5 1.6-6.5-4.3-18.8 5.5 5.5 19.1 5.2 22.8-1.3-4.6-1.8-5.8-4-7.4-11.1 2.2 3.7 5.6 1.6 14.2-0.3-2.1-5.8-3.1-15.4-1.2-31.4 2.8 4.9 4.6 4 12 2.7-1.8-8.9 0.3-13.2 1.9-21.9 1.5-8.6-1.6-18.2 0-25.6 0 0-0.2-1.2 0.2-1.4 4.8-2 9-3.7 26.4-4.5l1.8-0.1-0.2-1.9c-0.4-4.3-3.9-5.2-8.9-6q-0.2-0.4-0.4-0.8-0.3-0.4-0.7-0.7-0.4-0.2-0.8-0.4-0.5-0.2-1-0.2c-1.9-0.3-4.5 0.9-5.9 2.6-1.4-0.2-2.5-0.8-2.8-1.8-0.2-1.1 0.4-2.6 2.1-3.7 1.8 0.9 4 0.7 5.6-0.7 1.6-1.3 2.3-3.6 1.1-6.1 0.8-1.5 0.7-3.3-0.6-4.9-1.6-2-4.4-2.9-7-1.8-2.1-1-4.9-0.2-6.4 1.5-1.2 1.3-1.4 2.8-0.9 4.2-1.1 0.7-2.1 1-3.2 0.7-1.7-0.4-3.1-1.9-3.6-3.7q-0.1-0.3-0.1-0.6-0.1-0.3 0-0.6 0-0.3 0-0.6 0.1-0.3 0.2-0.6c0.7 0.2 1.5 0.3 2.3 0.1 1.9-0.4 3.5-1.9 4-3.7 0.3-1.4 0-2.7-0.8-3.9 1.6-2.5 1.2-5-0.2-6.5-1.9-1.9-5.3-2.3-8.2-0.2-2.5-0.7-5 0.6-6.3 2.5q-0.3 0.5-0.4 0.9-0.2 0.5-0.3 1 0 0.5 0.1 0.9 0 0.5 0.2 1c-1.8 1.6-3.8 1.4-5.1 0.6q-0.6-0.3-1-0.9-0.4-0.5-0.7-1.1-0.2-0.6-0.3-1.2 0-0.7 0.1-1.3c2 0 3.8-1 4.8-2.9 1.1-1.9 1-4-0.1-5.5 0.2-1.1 0.1-2.1-0.5-3.1-1-1.6-2.8-2.6-4.5-2.5-0.8 0-2.2 0.4-3.3 1.8q-0.6 0.1-1.2 0.3-0.5 0.2-1 0.5-0.5 0.3-0.9 0.8-0.4 0.4-0.6 1c-0.8 1.5-0.7 3.3 0.1 4.8-1.6 1.3-2.7 1.5-3.3 1.2-0.8-0.4-1.3-2.2-1.1-4.6 1.2-0.7 1.8-2 1.8-3.6 0-2.1-1.3-4.6-3.5-5.7-0.8-3-2.7-4.8-5.6-5.1l-2.8-0.3 1 2.6c1.6 4.6-1.3 19.8-4.7 29.4l-1.1 0.6c-12 5.8-38.1-0.6-39.8 0.6-1.8 1.2-12.3 15.1-11.4 20.7 23.5 2.7 23.8 7.4 25.6 11.1-2.1-0.3-10.2-3.4-23.7-4-13.6-0.7-26-8.4-21.3-17.6 4.6-9.3-11.1-13-13.6-4.7-7.1 24.7 20.1 31.5 28.4 31.8 8.3 0.3 8.6 1.3 17.6 4.7-2.8-0.7-11.4-2.5-13.9-1.3-2.5 1.3-2.5 17-0.6 18.8 1.8 1.9 10.1-1.2 16.3-1.2-6.8 8.9-28.4 2.8-35.8 1.5 0.3 3.1-1.5 5.6 1 9.6-7.1 1.6-21.3-4.6-26.9-6.5-2.8-4.3-6.2-11.4-17.6-22.8-11.4-11.4-17.6-16.4-24-28.7-6.5-12.3-10.5-16.3-13.6-15.4-0.6-2.8-3.4-5.6-7.7-7.4-1 2.1-1 7.1 0.3 9.8 0 0-0.6 0.7-1.6 2.8-11.1-11.7-15.1-10.2-18.5-9.5-7.4-3.1-10.1-1-15.7 1.5 1.5 0.9 4.6 4.6 9.6 6.8-0.7 1.8 0.6 5.2 8.9 15.4-11.1-1.2-13.3 0.9-15.4 2.5-4.3 0.3-9 5.8-10.2 9.9q1.2 0.3 2.3 0.6 1.2 0.3 2.4 0.5 1.2 0.2 2.4 0.3 1.2 0.1 2.5 0.1c0.6 1.5 2.7 3.4 18.8 8.6-1.3 0.7-2.8 1.9-4.3 3.7-1.9 0.4-3.4 2.2-5.9 5.6 1.5 0.9 5.9 2.5 9.3 2.2 19.7 2.7 27.4 6.1 26.5 18.8-0.9 12.6 1.8 12.3 9.9 15.7-0.7 4.3-0.3 11.4 0.3 15.4 2.4 0 4.9-1.5 9.2-5.2 0 3.7 2.8 10.2 6.2 13.9 0.9-1.3 1.8-1.3 2.8-2.5 0.9 5.9 4.3 11.7 7.4 15.4-0.6 0.3 0.3 1.3-0.6 3.4 1.2 0.3-0.4 1.6 10.8 2.2-6.5 2.1-13 6.5-34.3 20.7-21.3 14.1-22.8 11.1-29 5.5-6.2-5.5-8.9-7.1-11.7-6.8-2.2-0.9-5.3-3.4-12-0.6 0.6 1.5 2.7 4.3 8.9 7.1 0 0 0 2.5 3.4 4.9-5.3-0.6-9.6 0.7-11.4 1.9-2.2 0-9.6 4-11.7 9.2 1.8 0 5.2 0 10.8-0.9 0.9 1.2 3.3 3.7 11.4 4.9-9 1.9-11.4 5.6-13.3 7.4-2.2 0.7-5.5 3.8-7.4 8.1 1.5 0.9 5.9 0.6 10.8 0.3 1.2 0.9 5.2 1.8 11.1 3.1-3.1 1.2-3.1 3.4-3.7 6.1-2.5 1.3-5.6 6.5-5.2 9 3-0.6 6.7-1.3 9.5-2.2 17.6 1.6 21-5.5 23.5-8.9 2.4-3.4 21.3-2.8 32.1-15.8 1.5 2.5 1.5 5 1.5 9.3 4.6-0.6 12.6-4.3 16.7-9.9 0.6 0.9 0.6 2.5 1.2 4.6 3.1 0.4 8-1.8 13.9-5.8 0.6 3.4 10.8 3.7 17.3 0.6 3.3 2.5-3.1 11.1-3.4 14.2 7.1 1.5 9.5 0 16.9-4.9-1.2 2.7-1.5 7.7-1.5 10.8 1.5 0.3 6.5 0.9 10.5-1-0.3 2.2 1.2 3.7 2.4 6.2-21.6-1.9-43.2 1.2-53 7.4-9.9 6.2-14.2 11.4-14.5 29.3-0.3 17.9-11.4 22.8-15.8 24.7 3.7 4.6 13.6 5.2 19.2 1.8-1.3 5.6-7.4 14.2-6.2 14.2-13 34-20.4 26.6-30.2 21.6-9.9-4.9-14.2-4.6-17-3.4-4-1.5-13.9 2.2-15.7 5.6 1.8-0.3 8.9 0.6 14.1 0 1.6 0.9 1.3 1.2 3.1 1.8-3.1 0.4-9.2 3.4-10.2 7.4-5.8 3.1-6.1 9.6-5.5 14.2 2.8-2.1 5.5-4.9 9.9-5.8 1.5 0.6 1.5 0.9 13.2-0.6-12.9 2.4-12.6 7.1-12.6 10.1-3.1 1.9-6.5 9.3-6.5 14.5 4.3-3 11.7-3.7 17-5.2 3.4 1.5 7.7 1.8 14.8-2.2-2.8 2.5-2.8 4.1-3.1 6.5-4 1.3-6.2 6.5-6.2 12 2.5-0.9 7.7-2.7 13-5.5 4.9 1.2 11.7-0.6 22.5-13.9 1.9 1.6 2.5 4.3 6.2 8 2.8-1.8 4-10.5 8.9-16.3 2.5 0.6 4 3.4 6.2 5.5 2.5-2.7 4-13.5 3.1-19.4 2.5 1.5 3.7 3.1 6.1 6.2 12.1-8.4 10.8-18.5 9-24.7 1.8-1.2 5.9-8 7.1-14.2 3.4 0.9 8 8.6 12.3 10.2 3.1-3.7 3.7-20.4-3.1-33.7 5-16.6 11.5-13.5 46.9-18.8 23.5 25.6 14.5 31.2 13.6 38 3.7 1.8 7.7-0.3 11.4-2.5-0.6 4.9 0 6.5 6.2 6.5 1.9-6.2 9.3-7.4 15.4-12-1.2 6.1-1.5 12.3 4 14.2 7.4-13 10.8-10.2 15.5-12.4-0.7 2.5-2.8 5.9-0.7 9.6 4.1 0.3 6.8-1.9 10.2-3.1 2.8 0.9 3.1 0 9 11.7 5.8 11.7-5.9 19.1-17.9 24.1-12 4.9-12 6.5-12.4 8.9-1.8 0.3-4.6 4-5.2 7.7 1.8 0.3 5.5-0.3 8.9-0.9 1.6 1.5 1.6 1.2 5.3 1.5-8.7 1.6-9.3 6.2-9.9 8.7q-1.3 1.1-2.1 2.5-0.9 1.4-1.4 3-0.4 1.6-0.3 3.3 0.1 1.7 0.7 3.2c3.1-1.5 5-1.8 9-3.7 1.5 0.6 2.1 0.9 10.5-1.8-1.6 1.2-2.2 2.4-2.2 5.5-4 3.7-2.2 9.3-0.6 12 2.1-2.4 3.1-4.3 5.8-5.5 2.2 0.9 5.9 1.2 12.1-2.5-1.6 3.7-0.3 6.5 0 9.9 2.1-1.2 4.6-3.4 7.1-6.5 1.8 0 8.9-4 16.9-20.3 2.2 0 3.8 0.6 7.8 1.8 1.8-1.5 2.4-4.9 1.5-11.1 2.2 2.5 4 3.4 8.3 3.1 0.6-2.8-0.3-6.5-2.4-11.4 3.7 0.9 5.2 0.6 8.6-1.3-0.3-3-3.7-8.6-8.9-13.2 1.5 0.3 2.4 0.9 5.8 0.6 0.3-2.8 1.2-4.6-2.8-11.4 3.1 1.2 2.5 0 8.1-0.6-0.4-4.4-3.7-19.2-14.2-28.7-10.5-9.6-7.1-12.4-4-18.9-6.5-4-13.3-7.4-27.5-7.1-1.5-1.8-3.7-3.7-14.8-25.9 34.5-0.3 39.2-30.8 28.7-49.3-10.5-18.5-3.4-21.9 7.4-25.6-5.9-7.5-18.5-13-26.5-6.5-6.5-9.9-6.8-26.9-3.1-37.4 3.7-10.4 12-14.1 22.8-8 10.8 6.2 7.7 19.5 8 26.2 4.7 1 14.2-11.7 13.9-21.2 10.2 27.7 13.6 31.4 30.6 27.7-16.4-8-12.4-27.1-15.1-36.6z"/>
	<path fill-rule="evenodd" class="s2" d="m602 276.5c-4.5-0.9-16.1-9.5-27.3-8.6-11.2 0.9-25.5-7.6-26.9-19.7-1.3-12.1 7.2-12.1 9.4-9.8 2.3 2.2-0.9 7.6-0.4 10.7 0.4 3.2 3.1 11.7 16.6 13.5 13.4 1.8 21.9 1.8 31.3 5.8 0 4.5-0.9 5.4-2.7 8.1zm36.5 94.9c-4.2 6.5-7.6 19.5 1.4 26.9-9.9 1.2-12.7 0.3-17-4.1-4.9 3.4-7.7 8.7-7.4 12.4-7.7-3.1-18.5-12-17.9-23.1-6.8 2.7-10.5 11.1-11.1 16-5.9-6.8-10.5-9.9-14.2-13-7.1 8.1-10.8 13-16.6 13.3 0.9-12.6-1-19.1-2.8-22.5 8 0.9 22.5 0 27.4-8.4-9.5 4.1-17.2 3.7-21.6 2.5 6.2-7.4 8.1-14.2 8.7-17.3-5.3 4.7-5.6 9-10.2 11.8-4.6 2.7-4.6 11.1-23.8 10.5 8.4-6.2 12.7-13.3 13-19.5 0.3-6.2 7.7-10.5 21.9-11.1-6.8-3.7-18.8-3.4-22.8 3.4-4 6.8-19.1 10.2-25.9 6.5 6.8-7.4 7.1-19.2 30.5-19.8-12-3.4-31.2-6.8-36.1-22.5 17 7.4 43.5 9.3 47.5 8.6 5 9.3 16.1 11.5 22.9 10.5-1.9 5-3.1 8.7-3.7 13.6 8.6-0.6 20.3-4.6 22.5-6.5-3.4 14.8-4 26.9-3.4 30 6.5-2.8 13.6-8.1 18.8-8.1 4.6 5.9 12.4 7.7 19.9 9.9zm-64.6-55.5c-11.4 1.5-34.9 3.4-40.5-15.4 15.8 5.8 18.3 8.3 28.4 6.4 2.5 4 6.8 6.8 12.1 9z"/>
	<path fill-rule="evenodd" class="s2" d="m537.1 314.3c-11-0.8-22.5-5-25-8.9-1.3 5.6-0.4 20 18.6 30.6-6.8 8-8 10.6-14 14.8-2.5-6.4-6.3-12.7-5.9-16.5-3.8 3.8-6.8 3.8-8.9-14.4-1.7 5.5-6.8 8.4-9.3 8.9 0.4-4.7 2.1-13.2 0-14.9-2.1-1.7-9.3-1.7-9.3-6.3 0-4.7 1.2-11.9-0.5-14.9-1.7-2.9-5.5-10.7-15.7-11-13.1-0.4-12.7-2.1-13.5-4.2-0.9-2.1 0-3.4 7.2-7.2-22-7.2-23.3-8.1-22.9-13.2 0.4-5.1-1.3-7.2 21.2-6.3-14-16.6-15.3-17.4-11.9-21.6 3.4-4.3 7.7-5.5 23.3 11 0-7.7 0.5-6.8 3.4-8.1 3-1.2 6-2.5 13.6 11.5 5.6 10.2 9.7 17.8 17.8 24.1 8.1 6.4 18.2 19.9 31.8 46.6z"/>
	<path fill-rule="evenodd" class="s2" d="m443.8 230.4c-2.9-0.8-2.5-2.1-6.7-3.4 4.6-2.5 7.6-2.1 10.1-1.2-1.7 1.7-1.7 1.7-3.4 4.6zm31.4-1.7c-2.1 0-2.1 0.9-3.8 1.7-1.3-4.2-1.3-4.6-0.9-6.3 2.6 1.2 3.4 2.9 4.7 4.6zm-39.4 31.4c-3-1.3-3.4 0.4-6.4-0.4 1.7-3.4 2.2-3.8 6.8-6.8-0.4 2.1-1.3 3.8-0.4 7.2zm16.5 20.3c0 0-3.4 0.5-5.1-0.8 1.7-1.3 0.9-1.7 3.4-2.6z"/>
	<path fill-rule="evenodd" class="s2" d="m542.4 356.9c-14.8 6.5-17 5.6-38.6 19.5-21.6 13.8-30.5 24-41.3 12.3-10.8-11.7-9.4-6.7-10.5-5.6-2.2 2.2 0 4.1 5.2 9-16 0.6-16.3 1.2-16.3 4.6 0 3.4 1.8 3.7 17 8.3-17 6.2-18.9 8.7-17.9 11.8 0.9 3.1 3.4 3.7 17.6 5.5-6.2 5.3-7.8 7.7-5.3 11.1 2.5 3.4 2.8 2.2 10.2 1.3 7.4-1 8.8-2.7 11.4-6.8 4.9-7.7 19.7-0.6 35.8-19.5 1.5 4.4 2.8 7.1 2.5 10.8 9.2-2.7 12.9-8 15.1-12.6 1.2 5.2 1.5 4.6 2.1 7.4 5-0.9 10.5-4 13.3-7.4-0.3 4.9 5.3 6.8 15.1 2.1 0.3-2.1 0.6-4.3 1.3-5.8-4 1.2-5 0.6-6.5 0.6 0.9-7.1-1.6-22.2-2.8-25.3-8.9 1.9-18.5 2.8-22.5-1.5 7.1-6.5 16.3-12.4 15.1-19.8z"/>
	<path fill-rule="evenodd" class="s2" d="m448.9 383.1c-0.9-0.3-3.7-1.8-6.5-4 4-0.9 5.3-0.3 8.1 1-1 1.2-1 1.8-1.6 3zm-10.5 16.1c-2.8 0-2.8 0.3-6.1 0.6 1.2-1.5 2.4-3.7 6.4-5.2-0.6 2.1-0.6 2.7-0.3 4.6zm1.3 20.7c-1.9 0-3.1-0.7-6.2 0 1.2-3.1 2.5-3.1 4.6-5 0 1.9 0.6 3.1 1.6 5zm12 16.3c-1.6 0-3.1 1.6-6.2 1.6 0.9-2.2 1.9-3.1 3.7-5.3 0.9 1.2 1.6 2.5 2.5 3.7z"/>
	<path fill-rule="evenodd" class="s2" d="m587.1 439.6c-24.3 0-46.6-0.6-57.7 9.3-11.1 9.8-9.5 16-9.8 22.5-0.3 6.5-0.3 23.1-14.8 27.1 6.7 2.8 12.3 3.4 19.4-5.5-2.2 9.8-3.4 17.3-7.1 19.1 7.4 4.3 7.7 2.2 12.3-0.6 1.6 9.9 5.9 15.4 6.8 17.9 4.7-8 7.7-13 7.1-16.7 4.3 8.7 8 9.3 9.6 15.8 4.3-6.5 6.2-10.5 5.5-17 6.2 3.4 10.5 7.1 13.6 11.4 2.5-8.9 0-22.5-4.6-29.3 4-17 6.2-19.8 50-22.5 2.4-7.7 13.5-20.4-30.3-31.5z"/>
	<path fill-rule="evenodd" class="s2" d="m516.5 515.5c-11.7 24.4-16.4 32.4-30.3 23.8-13.8-8.7-18.8-5.9-19.1-4.4-0.3 4 5 2.8 6.5 5.9-11.1 0.6-14.8 4.6-12.7 9.3 2.2 4.6 2.2 4 12.1 2.7 9.8-1.2 8 0.6 11.4 3.1-14.5 0.9-25 5.6-14.5 13 10.5 7.4 13 3.4 14.5 2.4 1.5-0.9 6.8-4.3 10.8-1.2-5.9 1.9-9.9 9.3-5.6 11.4 4.4 2.2 11.8 5 24.7-13.9 3.1 4.7 3.4 1 5.9 8.4 1.5-9 7.7-12.7 7.4-17.6 4.3 3.4 5.9 2.8 7.7 6.2 1.9-6.5 1.2-17.3 0.3-22.9 4.9 7.4 8 5.3 9.3 10.5 6.4-7.1 9.2-7.7 6.8-20-2.2-4.1-2.8-9.3-6.5-12.7-2.5 5.6-6.2 11.1-8 13.6-5.6-4.3-8.4-12-9.6-16.7-4 0.9-5.9 0.9-11.1-0.9z"/>
	<path fill-rule="evenodd" class="s2" d="m465.6 536.5c-2.8-0.3-5.9 0.3-11.7 0.3 4.9-3.1 6.4-2.5 11.7-3.1 0 0.3-0.6 1.9 0 2.8zm-4.7 17.6c-4.6 0.6-1.2-1-7 3.7 1.5-4 0.3-3.7 4.9-8.4 0.9 2.2-0.3 2.5 2.1 4.7zm11.5 18.2c-5.3 0-8.7 1.8-13.6 4 1.8-4 2.5-5.9 6.5-9.3 2.4 3.4 2.4 4 7.1 5.3zm17.2 11.7c-1.8 0-4.3 1.5-8.3 3.4 0.6-2.2 2.5-4.6 4.6-6.5 1.3 1.6 2.2 1.9 3.7 3.1z"/>
	<path fill-rule="evenodd" class="s2" d="m640.6 401.2c28.2 36.3 47.5 39.9 60.7 34.1 13.9-6.2 12.4-21.2 3.1-35.5-5.4-8.2-16.7-17.6-29.5-4.2-2-11.3 6.1-18 13.8-17.4-14.3-40.5-13.3-51.2-5.1-71.2 8.2-20 32.3-22.5 41.5-20-8.7 4.7-8.2 4.1-12.8 9.3 13.3-2.6 19.9-0.6 29.6 3 9.8 3.6 14.9 4.1 27.2-2-3.6 9.7-7.2 18.1-13.8 18.6-7.7-5.6-15.4-12.5-23.6-10.9 11.8 5.6 24.6 13.3 25.6 26.6 1 13.3 3.6 18.9 10.2 22.5-10.7 1-13.3-4.6-17.4-18.4-4.1-13.8-5.6-13.8-16.9-20 6.7 11.8 11.8 18.9-1 28.2 1.6-12.8-2.5-20.5-12.8-26.1-10.2-5.7-19.9 0-24 12.2-4.1 12.3-3.1 27.7 5.1 42 7.2-6.6 13.3-6.6 23 1-9.7 0.5-16.3 9.2-11.7 17.9 4.6 8.7 12 18.8 10.5 31.1-1.6 12.3-9.5 22.7-37.2 24.7 12.8 16.9 11.8 29.7 21.5 32.8 9.3-3.1 19.5 1.5 23.6 3.6-2.1 4.1-7.2 9.7 4.6 19.4 11.8 9.7 13.8 19 14.3 25.1-6.1 0-6.1 1-10.7-1.5 2.5 6.1 6.1 6.6 6.1 13.8-6.6-1-4.1-3.1-10.7-3.1 4.6 6.7 13.3 12.3 13.3 16.4-7.2-0.5-6.7 1.5-11.8-3.1 1.5 5.1 6.1 9.2 6.6 14.9-5.6-0.5-8.1-10.3-9.2-4.6-1 5.6 2.1 7.1-0.5 11.7-4.1-1.5-5.6-1.5-7.7-1.5-5.6 15.3-13.3 23-17.9 20-4.6-3.1 1.1-3.6 4.6-10.3-12.2 9.2-16.3 13.3-21.5 8.7-5.1-4.6-3-6.1 9.3-14.8-18 5.6-19.5 8.2-23.6 3.1-4.1-5.2-4.1-8.2 14.3-13.4-11.7-2-11.7 0-14.3-4.6-2.5-4.6-2-5.1 12.3-10.2 14.3-5.1 21-12.8 18.4-21-2.5-8.2-6.6-17.9-11.8-18.4 2.1-5.6 3.6-6.1 2.1-8.7-4.1 5.1-4.6 9.7-12.3 11.8-0.5-6.7 6.7-11.3 4.6-21-4.1 8.7-5.1 12.8-11.2 12.8-6.2 0-6.2 6.1-10.8 10.2-4.1-4.6 3.1-17.4 1-24.6-3.5 9.8-4.6 12.3-10.2 14.4-5.6 2-9.7 4.1-11.3 9.2-5.1-0.5-0.5-3.6-1.5-10.3-6.7 7.2-7.7 5.2-11.3 6.2 4.6-8.2 4.1-15.4-12.8-35.3 3.6-14.4 12.8-25.1-31.2-38.4-3.6-5.6-5.1-6.7-5.1-10.8-6.1 4.6-8.2 4.6-11.3 4.1 0-6.1 3.6-5.6 1.1-12.3-6.7 6.7-8.2 7.7-16.4 7.2 2.6-6.1 7.2-9.7 3.6-14.3 2.5-5.6 4.1-13.3 9.7-17.4 5.1 6.6 10.7 9.7 17.9 11.2 1.5-7.6-1-9.7 5.6-13.3 2.6 7.7 14.9 18 22.6 20 1.5-4.1 0-7.7 5.1-11.8 4.6 3.6 11.8 3.6 18.4 2.6z"/>
	<path fill-rule="evenodd" class="s2" d="m706.2 592.6c-0.9 1.6-0.9 1.6-2.7 3.1 0.3-1.8 0-1.5 0.6-4.9 1.2 0.6 3 0.3 2.1 1.8zm-18.2-1.8c-1.5 0.9-0.9 1.2-3.7 4.6-0.9-5.5 0-5.5 1.9-7.7 0.6 1.8 0.6 1.5 1.8 3.1zm-12.9-10.2c-3.1 0.3-3.7 1.8-6.5 2.8 0-4.3 0.9-5 3.4-7.1 0.9 2.1 1.5 2.4 3.1 4.3zm-0.7-18.8c-3 0-3.3 0.9-5.8 1.2 0.9-1.5 0.9-2.1 4.6-4 0.3 1.9 0.6 0.9 1.2 2.8z"/>
	<path fill-rule="evenodd" class="s0" d="m629.7 246.8c-0.3 1.8-1.2 1.8-2.1 3.1 3.3 0 7 0.6 8.3 0.9-3.7-2.2-4.6-2.2-6.2-4z"/>
	<path fill-rule="evenodd" class="s2" d="m582.8 251.8c0.4-3.6 4.9-10.7 6.2-13.4 3.6 0.9 8.5-0.5 7.2-3.2 10.3 2.3 21.5 4.1 36.3 0.5 16.1 5.8 30.4 18.4 34.9 24.2-1.8 2.2-2.2 3.1-4 4.5 6.3 1.3 21.5 4.9 3.1 18.3 7.2 0 10.3-4.9 9.9 5.4-0.5 10.3-4 19.7-1.4 25.1-6.7 0-10.3-4-13.4-14.8 1.8 17.9-4 31.4 0.9 43-7.2 0.5-11.2 0-13.4-7.2-1.8 10.4 0.9 18.4 5.8 21.6-13.9 3.1-21.1-4.1-21.1-14.8-2.2 13-3.6 17 2.3 25.1-12.1-3.2-13.5-6.8-15.7-10.3-5.8 3.1-11.7 2.2-17 6.7 2.2-12.6 5.3-19.7 3.5-28.2-11.1 4-16.5 4-20.6 5.3 1.4-4.5 5-7.1 3.6-11.2-12.1 0.9-18.8-0.4-23.7-6.2 9.8-1.4 18.3-3.6 19.7-10.3-8.5 2.2-22-3.2-23.8-14.8 14.8 4.4 29.2 4.4 36.3-3.6 6.8 4.5 19.8 5.8 19.8 3.6 0-2.3-3.6-3.2-8.6-4.1-4.9-0.9-9.8-5.8-16.5-5.8-6.8 0-13 4.9-13.9 3.1-0.9-1.7 0-12.9 1.3-13.8 1.4-0.9 8.1-0.9 13.9 2.2 5.8 3.1 14.3 0.9 14.3-7.6 0-8.5 1.8-17.5-25.9-19.3zm60.8 1.3c-5.2-4.5-11.6-9.6-16.7-10.2-0.7 3.2-0.7 8.3-3.9 9.6 8.4 0.6 12.2 0 20.6 0.6z"/>
	<path fill-rule="evenodd" class="s2" d="m633.4 232.6c3.4-9.6 6.5-25.3 4.6-30.6 3.1 0.3 4.1 2.8 4.4 4.7 3 0.6 4.6 6.1 1.5 6.8-1.2 6.1 2.2 11.1 8.3 4.9-2.4-2.2-0.9-6.5 2.2-5.9 2.2-4.3 7.1-0.3 5.5 2.5 2.5 1.8 0 7.4-4 5.9-3.4 6.7 5.6 12.6 10.5 6.1-2.8-1.8 1.6-6.5 4.6-4.6 4.4-4 10.5 0.3 5.9 4.9 4 3.4-1.5 7.7-3.7 5-4.9 4.9 3.1 14.8 9.6 8.3-3.1-2.8 2.4-6.5 4.9-4.3 3.4-2.5 8.3 2.1 5.6 4.6 3 4.3-2.2 7.4-4.7 4.9-5.8 2.8-4.9 9.6 1.6 9.6 0.6-2.5 6.5-4.6 6.5-0.9 6.1 0.9 8.3 1.5 8.6 4.6-20.1 0.9-22.8 3.1-29 5.6-15.1-16.4-28.7-26.3-42.9-32.1z"/>
	<path fill-rule="evenodd" class="s2" d="m732.1 293.1c7.1-3.4 17-3.8 18.9-17 4.6 6.2 3 17.3-3.1 21.6-5-1.3-7.1-3.1-15.8-4.6z"/>
	<path fill-rule="evenodd" class="s0" d="m640.2 229.2c0-0.5 0.2-1 0.5-1.3 0.4-0.4 0.9-0.6 1.3-0.6 0.5 0 1 0.2 1.4 0.6 0.3 0.3 0.5 0.8 0.5 1.3 0 0.5-0.2 0.9-0.5 1.3-0.4 0.3-0.9 0.5-1.4 0.5-0.4 0-0.9-0.2-1.3-0.5-0.3-0.4-0.5-0.8-0.5-1.3zm9.6 5.2c0-0.5 0.2-0.9 0.5-1.3 0.4-0.3 0.8-0.5 1.3-0.5 0.5 0 1 0.2 1.3 0.5 0.4 0.4 0.6 0.8 0.6 1.3 0 0.5-0.2 1-0.6 1.3-0.3 0.4-0.8 0.6-1.3 0.6-0.5 0-1-0.2-1.3-0.6-0.3-0.3-0.5-0.8-0.5-1.3zm9.8 6.8c0-0.5 0.2-0.9 0.6-1.3 0.3-0.3 0.8-0.5 1.3-0.5 0.5 0 1 0.2 1.3 0.5 0.3 0.4 0.5 0.8 0.5 1.3 0 0.5-0.2 1-0.5 1.3-0.4 0.4-0.8 0.6-1.3 0.6-0.5 0-1-0.2-1.3-0.6-0.4-0.3-0.6-0.8-0.6-1.3zm8.1 6.8c-0.1-0.5 0.1-1 0.5-1.4 0.3-0.3 0.8-0.5 1.3-0.5 0.5 0 1 0.2 1.3 0.5 0.4 0.4 0.6 0.9 0.6 1.4-0.1 0.5-0.3 0.9-0.6 1.3-0.4 0.3-0.8 0.5-1.3 0.5-0.5 0-0.9-0.2-1.3-0.5-0.3-0.4-0.5-0.8-0.5-1.3zm8.3 8c0-0.5 0.2-1 0.5-1.3 0.4-0.4 0.8-0.6 1.3-0.6 0.5 0 1 0.2 1.4 0.6 0.3 0.3 0.5 0.8 0.5 1.3 0 0.5-0.2 0.9-0.6 1.3-0.3 0.3-0.8 0.5-1.3 0.5-0.4 0-0.9-0.2-1.2-0.5-0.4-0.4-0.6-0.8-0.6-1.3z"/>
</svg>