<svg xmlns="http://www.w3.org/2000/svg" xml:space="preserve" viewBox="0 0 833.3 500"><path fill="#fff" d="m166.7 250 250-150 250 150-250 150z"/><path fill="#e8112d" d="m166.7 250 250-150 250 150-250 150zm250-250L0 250l416.7 250 416.7-250z"/><path fill="#0038a8" d="M218.8 171.9h395.8v156.3H218.8z"/><path fill="#fff" d="M536 259.7c0-10.3 3.6-20.6 15.5-20.6 12 0 15.6 10.3 15.6 20.6 0 10.2-3.6 20.5-15.6 20.5-11.9-.1-15.5-10.4-15.5-20.5m-17.7 0c0 20.3 13 33.7 33.1 33.7 20.2 0 33.2-13.4 33.2-33.7 0-20.5-13-33.9-33.2-33.9-20 0-33.1 13.4-33.1 33.9m-43.5 32h17.6v-28.9c0-11.3 4.5-20.6 17.4-20.6 2.1 0 4.7.2 6.3.6v-16.4c-1.1-.4-2.6-.6-3.8-.6-8.6 0-17.2 5.6-20.5 13.6l-.3-11.9h-16.7zm-23.9-83.4h-17.6v19.2h-10.7v11.8h10.7v37.8c0 12.8 9.4 15.2 20.2 15.2 3.5 0 7.3-.1 10.3-.6V278c-1.9.4-3.6.5-5.4.5-6 0-7.4-1.5-7.4-7.4v-31.7h12.9v-11.8H451v-19.3zm-79.1 44.4c.2-5 3.5-13.6 14.6-13.6 8.6 0 12.4 4.7 14 13.6zm46.3 11.2c1.2-19.7-9.3-38.1-31.1-38.1-19.5 0-32.7 14.6-32.7 33.9 0 19.8 12.5 33.7 32.7 33.7 14.5 0 25.1-6.5 30-21.6h-15.5c-1.1 4-6.8 8.3-13.9 8.3-9.8 0-15.3-5.1-15.7-16.2zM250 291.7h18.2v-62.1l22 62.1h15l21.7-62.8.3 62.8h18.2v-88.5H318L298.4 264l-21-60.9H250z"/></svg>