<svg xmlns="http://www.w3.org/2000/svg" xml:space="preserve" width="64.012" height="64" viewBox="0 0 64.012 64"><path fill="#ffb21e" fill-rule="evenodd" d="M0 0h64.012v64H0z" clip-rule="evenodd"/><path fill="#fff" d="M23.756 15.528c1.447 0 2.738.226 3.896.683 1.158.475 2.159 1.106 2.987 1.922a8.3 8.3 0 0 1 1.899 2.837 9 9 0 0 1 .66 3.444c0 1.899-.411 3.543-1.216 4.927-.776 1.384-2.09 2.437-3.896 3.161v.093c.868.237 1.609.608 2.171 1.106a6.3 6.3 0 0 1 1.401 1.754 8.2 8.2 0 0 1 .788 2.235 22 22 0 0 1 .341 2.437c.041.515.07 1.117.093 1.818.029.683.093 1.395.145 2.119.081.724.208 1.413.371 2.055.168.648.405 1.198.735 1.644h-7.086c-.382-1.025-.619-2.235-.712-3.659a50 50 0 0 0-.417-4.058c-.226-1.696-.753-2.924-1.529-3.711-.776-.776-2.067-1.175-3.844-1.175h-7.086v12.603H6.359V15.528zm-2.53 14.577c1.621 0 2.86-.353 3.647-1.077.817-.729 1.228-1.899 1.228-3.531 0-1.569-.411-2.698-1.228-3.41-.787-.701-2.026-1.054-3.647-1.054h-7.769v9.071h7.769zM36.568 40.44v-5.858l13.744-18.427h5.743V35.16h4.191v5.28h-4.191v7.323h-6.108V40.44zm13.246-16.251L41.639 35.16h8.308V24.189z"/></svg>