<svg xmlns="http://www.w3.org/2000/svg" width="64" height="64"><path d="M.787-136.128h64v64h-64z" style="opacity:1;fill:#f47216;fill-opacity:1;fill-rule:nonzero;stroke:none;stroke-width:7.0859999699999996;stroke-linecap:round;stroke-linejoin:round;stroke-miterlimit:4;stroke-dasharray:7.0860000000000003,14.172000000000001;stroke-dashoffset:0;stroke-opacity:1" transform="translate(-.787 136.128)"/><path d="M12.028-98.146H4.805q-.046 3.136 1.14 5.417 1.189 2.28 3.185 3.754 2.043 1.473 4.657 2.139a21 21 0 0 0 5.464.712q3.469 0 6.083-.807 2.66-.808 4.42-2.234 1.805-1.473 2.708-3.469t.903-4.324q0-2.85-1.236-4.657-1.188-1.854-2.85-2.946-1.664-1.094-3.375-1.568-1.664-.524-2.613-.713-3.185-.808-5.18-1.33-1.948-.524-3.089-1.046-1.093-.524-1.473-1.14-.38-.619-.38-1.616 0-1.094.475-1.806a4.2 4.2 0 0 1 1.188-1.188 5.1 5.1 0 0 1 1.663-.665 8.8 8.8 0 0 1 1.806-.19q1.378 0 2.519.237 1.188.237 2.09.808.903.57 1.426 1.568.57.998.665 2.519h7.223q0-2.947-1.14-4.99a9.46 9.46 0 0 0-2.994-3.421q-1.9-1.33-4.372-1.901a20.5 20.5 0 0 0-5.084-.618q-2.281 0-4.562.618-2.28.618-4.087 1.9a10.3 10.3 0 0 0-2.946 3.232q-1.093 1.9-1.093 4.514 0 2.329.855 3.992a8.7 8.7 0 0 0 2.329 2.709q1.425 1.092 3.231 1.805 1.806.666 3.707 1.14 1.853.524 3.659.951 1.805.428 3.231.998t2.281 1.426q.903.856.903 2.233 0 1.283-.665 2.139a4.8 4.8 0 0 1-1.664 1.283 8 8 0 0 1-2.138.665q-1.14.143-2.138.142-1.473 0-2.852-.332-1.377-.38-2.423-1.093a5.7 5.7 0 0 1-1.616-1.948q-.618-1.188-.618-2.9m41.079 11.263v-33.264h-5.37q-.285 1.901-1.188 3.184a7.4 7.4 0 0 1-2.234 2.09q-1.282.761-2.946 1.094-1.616.286-3.374.237v5.085h8.364v21.574z" style="font-size:47.52000046px;font-style:normal;font-variant:normal;font-weight:700;font-stretch:normal;text-align:start;line-height:125%;writing-mode:lr-tb;text-anchor:start;fill:#fff;fill-opacity:1;stroke:none;stroke-width:1px;stroke-linecap:butt;stroke-linejoin:miter;stroke-opacity:1;font-family:Helvetica Neue;-inkscape-font-specification:Helvetica Neue Bold" transform="translate(-.787 136.128)"/></svg>