<svg xmlns="http://www.w3.org/2000/svg" width="64" height="64"><path d="M.787-136.128h64v64h-64z" style="opacity:1;fill:#59c134;fill-opacity:1;fill-rule:nonzero;stroke:none;stroke-width:7.0859999699999996;stroke-linecap:round;stroke-linejoin:round;stroke-miterlimit:4;stroke-dasharray:7.0860000000000003,14.172000000000001;stroke-dashoffset:0;stroke-opacity:1" transform="translate(-.787 136.128)"/><path d="M12.028-98.146H4.805q-.046 3.136 1.14 5.417 1.189 2.28 3.185 3.754 2.043 1.473 4.657 2.139a21 21 0 0 0 5.464.712q3.469 0 6.083-.807 2.66-.808 4.42-2.234 1.805-1.473 2.708-3.469t.903-4.324q0-2.85-1.236-4.657-1.188-1.854-2.85-2.946-1.664-1.094-3.375-1.568-1.664-.524-2.613-.713-3.185-.808-5.18-1.33-1.948-.524-3.089-1.046-1.093-.524-1.473-1.14-.38-.619-.38-1.616 0-1.094.475-1.806a4.2 4.2 0 0 1 1.188-1.188 5.1 5.1 0 0 1 1.663-.665 8.8 8.8 0 0 1 1.806-.19q1.378 0 2.519.237 1.188.237 2.09.808.903.57 1.426 1.568.57.998.665 2.519h7.223q0-2.947-1.14-4.99a9.46 9.46 0 0 0-2.994-3.421q-1.9-1.33-4.372-1.901a20.5 20.5 0 0 0-5.084-.618q-2.281 0-4.562.618-2.28.618-4.087 1.9a10.3 10.3 0 0 0-2.946 3.232q-1.093 1.9-1.093 4.514 0 2.329.855 3.992a8.7 8.7 0 0 0 2.329 2.709q1.425 1.092 3.231 1.805 1.806.666 3.707 1.14 1.853.524 3.659.951 1.805.428 3.231.998t2.281 1.426q.903.856.903 2.233 0 1.283-.665 2.139a4.8 4.8 0 0 1-1.664 1.283 8 8 0 0 1-2.138.665q-1.14.143-2.138.142-1.473 0-2.852-.332-1.377-.38-2.423-1.093a5.7 5.7 0 0 1-1.616-1.948q-.618-1.188-.618-2.9m24.209-9.218H42.7q0-1.33.237-2.661.285-1.379.903-2.471.617-1.14 1.616-1.806 1.045-.713 2.518-.713 2.187 0 3.564 1.378 1.425 1.331 1.426 3.754 0 1.52-.713 2.71a8.5 8.5 0 0 1-1.71 2.137q-.998.95-2.234 1.759a50 50 0 0 0-2.328 1.52 176 176 0 0 0-4.087 2.9 19.7 19.7 0 0 0-3.327 3.135 13.5 13.5 0 0 0-2.28 3.802q-.809 2.139-.808 5.037h24.425v-5.797h-15.73a15 15 0 0 1 2.852-2.994 40 40 0 0 1 3.326-2.376q1.71-1.14 3.374-2.281 1.71-1.14 3.042-2.519 1.33-1.425 2.138-3.231t.808-4.324q0-2.424-.95-4.372a9.45 9.45 0 0 0-2.472-3.279q-1.568-1.33-3.659-2.043a13 13 0 0 0-4.324-.713q-2.994 0-5.322 1.045-2.28.999-3.802 2.851-1.521 1.806-2.28 4.277-.762 2.424-.666 5.275" style="font-size:47.52000046px;font-style:normal;font-variant:normal;font-weight:700;font-stretch:normal;text-align:start;line-height:125%;writing-mode:lr-tb;text-anchor:start;fill:#fff;fill-opacity:1;stroke:none;stroke-width:1px;stroke-linecap:butt;stroke-linejoin:miter;stroke-opacity:1;font-family:Helvetica Neue;-inkscape-font-specification:Helvetica Neue Bold" transform="translate(-.787 136.128)"/></svg>